<svg xmlns="http://www.w3.org/2000/svg" viewBox="0 0 247.4 247.4"><defs><style>.cls-1{fill:#fff;}.cls-2{fill:none;stroke:#000;stroke-miterlimit:10;stroke-width:2px;}</style></defs><title>Asset 31</title><g id="Layer_2" data-name="Layer 2"><g id="Layer_1-2" data-name="Layer 1"><circle class="cls-1" cx="123.7" cy="123.7" r="118.7"/><path class="cls-2" d="M5,123.7A118.7,118.7,0,0,0,123.7,242.4q4.83,0,9.56-.38c29.6-33,50.67-72.6,50.67-118.32S162.86,38.42,133.26,5.38Q128.54,5,123.7,5A118.7,118.7,0,0,0,5,123.7Z"/><path class="cls-2" d="M123.7,5c-1.6,0-3.2,0-4.79.1C87.34,38.82,64.46,78.76,64.46,123.7c0,44.76,19.89,84.56,48.25,118.19,3.62.34,7.29.51,11,.51A118.7,118.7,0,0,0,123.7,5Z"/><path class="cls-2" d="M123.61,159.57A236.79,236.79,0,0,0,20.79,182.89a118.74,118.74,0,0,0,205.79.07A236.86,236.86,0,0,0,123.61,159.57Z"/><path class="cls-2" d="M47.1,214.37a118.69,118.69,0,0,0,153.21,0c-20.68-17.48-47.22-27.43-76.42-27.43S67.77,196.89,47.1,214.37Z"/><path class="cls-2" d="M66.26,227.6a118.86,118.86,0,0,0,114.88,0,118.79,118.79,0,0,0-114.88,0Z"/><path class="cls-2" d="M85.39,236.08a119.33,119.33,0,0,0,76.52,0c-12-7.7-24.87-12.53-38.3-12.53S97.36,228.4,85.39,236.08Z"/><path class="cls-2" d="M27.88,53.64a236.91,236.91,0,0,0,95.73,20.08,237,237,0,0,0,95.87-20.13,118.7,118.7,0,0,0-191.6,0Z"/><ellipse class="cls-2" cx="123.7" cy="24.11" rx="64.6" ry="19.11"/><path class="cls-2" d="M123.89,5h-.19a118.7,118.7,0,0,0,0,237.4h.19Z"/><path class="cls-2" d="M123.7,5A118.47,118.47,0,0,0,86.52,11c11.65,7.26,24.11,11.8,37.09,11.8s25.49-4.55,37.17-11.84A118.69,118.69,0,0,0,123.7,5Z"/><path class="cls-1" d="M156.16,14.72q-32.39,17.94-64.91,0L60.66,24.11c39.47,24.39,87.4,24.19,126.06,0Z"/><path class="cls-1" d="M65.45,226.77c21.32-11.26,39.45-15,58.44-15s38.84,4.76,57.88,14.63l13.74-14.59A116.41,116.41,0,0,0,123.89,188c-26.28,0-51.27,8-71.95,23.89Z"/><path d="M123.7,247.4A123.7,123.7,0,1,1,247.4,123.7,123.84,123.84,0,0,1,123.7,247.4Zm0-237.4A113.7,113.7,0,1,0,237.4,123.7,113.83,113.83,0,0,0,123.7,10Z"/><path d="M10,123.7a113.61,113.61,0,0,0,2.33,23H235.08a114.72,114.72,0,0,0,0-45.91H12.33A113.43,113.43,0,0,0,10,123.7Z"/><path class="cls-1" d="M10,123.7a114.87,114.87,0,0,0,.91,14.45H236.49a115.1,115.1,0,0,0,0-28.89H10.91A114.72,114.72,0,0,0,10,123.7Z"/><path d="M18.78,123.59c0-8.3,5-13.07,12.31-13.07s12.32,4.8,12.32,13.07-5,13.29-12.32,13.29S18.78,131.9,18.78,123.59Zm18.35,0c0-5.09-2.34-8.1-6-8.1s-6,3-6,8.1,2.33,8.33,6,8.33S37.13,128.69,37.13,123.59Z"/><path d="M45.24,123.85c0-8.43,5.94-13.33,12.8-13.33a11.75,11.75,0,0,1,7.05,2.37,1.34,1.34,0,0,1,.19,2l-1.37,1.57a1.56,1.56,0,0,1-2,.25,6.42,6.42,0,0,0-3.73-1.19c-3.72,0-6.65,3.07-6.65,8.17s2.59,8.26,6.55,8.26a7,7,0,0,0,4.25-1.45,1.56,1.56,0,0,1,2.07.2l1.35,1.51a1.33,1.33,0,0,1-.11,1.92,11.57,11.57,0,0,1-7.78,2.78C51,136.88,45.24,132.41,45.24,123.85Z"/><path d="M65.91,123.85c0-8.43,6-13.33,12.8-13.33a11.81,11.81,0,0,1,7.06,2.37,1.34,1.34,0,0,1,.19,2l-1.38,1.57a1.56,1.56,0,0,1-2,.25,6.39,6.39,0,0,0-3.72-1.19c-3.72,0-6.66,3.07-6.66,8.17s2.6,8.26,6.56,8.26A6.93,6.93,0,0,0,83,130.47a1.56,1.56,0,0,1,2.07.2l1.36,1.51a1.33,1.33,0,0,1-.12,1.92,11.56,11.56,0,0,1-7.77,2.78C71.65,136.88,65.91,132.41,65.91,123.85Z"/><path d="M90.9,111H94a1.45,1.45,0,0,1,1.5,1.4V135a1.45,1.45,0,0,1-1.5,1.4H90.9a1.44,1.44,0,0,1-1.49-1.4V112.39A1.45,1.45,0,0,1,90.9,111Z"/><path d="M99.93,112.39a1.45,1.45,0,0,1,1.5-1.4h6.17c8.28,0,13.61,3.87,13.61,12.6s-5.33,12.82-13.27,12.82h-6.51a1.45,1.45,0,0,1-1.5-1.4Zm7.3,19.4c4.59,0,7.7-2.12,7.7-8.2s-3.11-8-7.7-8h-1.17v16.17Z"/><path d="M125.84,111h14a1.45,1.45,0,0,1,1.49,1.4v2a1.44,1.44,0,0,1-1.49,1.4H132a1.45,1.45,0,0,0-1.49,1.4v2.31a1.45,1.45,0,0,0,1.49,1.4h6.26a1.44,1.44,0,0,1,1.49,1.4v2a1.44,1.44,0,0,1-1.49,1.4H132a1.44,1.44,0,0,0-1.49,1.4v3a1.44,1.44,0,0,0,1.49,1.4h8.29a1.45,1.45,0,0,1,1.5,1.4v2a1.45,1.45,0,0,1-1.5,1.4H125.84a1.44,1.44,0,0,1-1.49-1.4V112.39A1.45,1.45,0,0,1,125.84,111Z"/><path d="M146.64,111h3.89a1.52,1.52,0,0,1,1.32.75l6.64,11.86,0,.07,2.67,5.55h.16c-.28-2.69-.78-6.25-.78-9.25v-7.58a1.45,1.45,0,0,1,1.49-1.4h2.86a1.45,1.45,0,0,1,1.49,1.4V135a1.44,1.44,0,0,1-1.49,1.4H161a1.52,1.52,0,0,1-1.32-.75l-6.63-11.89a.16.16,0,0,1,0-.07l-2.67-5.51h-.16c.29,2.8.78,6.2.78,9.2V135a1.44,1.44,0,0,1-1.49,1.4h-2.86a1.44,1.44,0,0,1-1.49-1.4V112.39A1.45,1.45,0,0,1,146.64,111Z"/><path d="M174.63,115.81h-4.48a1.44,1.44,0,0,1-1.49-1.4v-2a1.45,1.45,0,0,1,1.49-1.4h18.07a1.44,1.44,0,0,1,1.49,1.4v2a1.44,1.44,0,0,1-1.49,1.4h-4.48a1.45,1.45,0,0,0-1.49,1.4V135a1.44,1.44,0,0,1-1.49,1.4h-3.14a1.45,1.45,0,0,1-1.5-1.4v-17.8A1.45,1.45,0,0,0,174.63,115.81Z"/><path d="M196.43,111h5.14a1.48,1.48,0,0,1,1.42,1l7.58,22.62a1.42,1.42,0,0,1-1.42,1.82h-3.3a1.48,1.48,0,0,1-1.45-1l-3.25-11.82c-.76-2.54-1.48-5.55-2.21-8.2h-.16c-.66,2.68-1.38,5.66-2.14,8.2l-3.27,11.82a1.47,1.47,0,0,1-1.44,1h-3.08a1.42,1.42,0,0,1-1.43-1.82L195,112A1.49,1.49,0,0,1,196.43,111Zm-2.51,14.9H204a1.45,1.45,0,0,1,1.5,1.4V129a1.45,1.45,0,0,1-1.5,1.4H193.92a1.45,1.45,0,0,1-1.49-1.4v-1.67A1.45,1.45,0,0,1,193.92,125.89Z"/><path d="M213.29,111h3.14a1.45,1.45,0,0,1,1.49,1.4V129.5a1.45,1.45,0,0,0,1.5,1.4h7.71a1.45,1.45,0,0,1,1.5,1.4V135a1.45,1.45,0,0,1-1.5,1.4H213.29a1.45,1.45,0,0,1-1.5-1.4V112.39A1.45,1.45,0,0,1,213.29,111Z"/><path d="M93,18l.89.52a.74.74,0,0,1,.28,1c-2,3.47-3.86,6.28-6.13,10.06a.76.76,0,0,0,.33,1.06,35.66,35.66,0,0,0,5.05,1.95.74.74,0,0,1,.45,1c-.09.18-.16.35-.24.53a.77.77,0,0,1-.9.41A32.38,32.38,0,0,1,84.46,31a.75.75,0,0,1-.24-1c2.54-4.06,5.18-7.72,7.73-11.78A.73.73,0,0,1,93,18Z"/><path d="M102.61,22.59l.93.34a.74.74,0,0,1,.45.94c-1.51,4.34-2.86,7.36-4.38,11.72a.75.75,0,0,1-.86.48c-.59-.12-1-.23-1.61-.36a.75.75,0,0,1-.51-1c1.72-4.27,3.31-7.41,5-11.7A.75.75,0,0,1,102.61,22.59Z"/><path d="M108.28,24.39c.45.12.82.22,1.31.33a.77.77,0,0,1,.54.51A62.05,62.05,0,0,0,113,32.87v0c.45,1.19.69,1.79,1.19,3h.09c0-1.36.06-3,.26-4.46.28-2,.44-3.09.69-4.88a.74.74,0,0,1,.83-.63l.82.1a.74.74,0,0,1,.66.81c-.45,4.48-.71,7-1.16,11.5a.75.75,0,0,1-.82.67c-.65-.07-1.16-.14-1.88-.24a.77.77,0,0,1-.56-.4,61.35,61.35,0,0,1-3.36-7.71s0,0,0,0c-.36-1.2-.53-1.82-.84-3l-.09,0c-.22,1.38-.4,3-.76,4.42-.5,2-.78,3.14-1.19,4.92a.75.75,0,0,1-.85.56l-1.41-.24a.75.75,0,0,1-.59-.93c1.19-4.28,2.17-7.08,3.36-11.37A.74.74,0,0,1,108.28,24.39Z"/><path d="M120,32.87a6.81,6.81,0,0,1,6.79-6.79,6.44,6.44,0,0,1,3.64.85.73.73,0,0,1,.21,1.06c-.1.15-.21.29-.32.44a.73.73,0,0,1-1,.19,4.21,4.21,0,0,0-2.38-.54c-2.48.13-4.18,1.88-4.22,4.81s1.65,4.85,4.9,4.67a4.6,4.6,0,0,0,1.82-.46.74.74,0,0,0,.39-.72l-.15-1.63a.74.74,0,0,0-.8-.67c-.5,0-.91.07-1.42.09a.74.74,0,0,1-.78-.7v-.42a.74.74,0,0,1,.69-.77c1.4-.07,2.35-.15,3.73-.32a.73.73,0,0,1,.82.64c.22,1.71.36,2.8.58,4.6a.73.73,0,0,1-.22.64,8.19,8.19,0,0,1-4.84,1.74C123,39.82,119.77,37.18,120,32.87Z"/><path d="M135.32,32.7c-.46-2.63-.71-4.06-1.14-6.49a.74.74,0,0,1,.59-.85l.94-.19a.75.75,0,0,1,.88.57c.52,2.45.87,3.94,1.48,6.64s2.17,3.49,4.22,3.13,3.24-1.56,2.19-4.45-1.61-4.36-2.4-6.79a.75.75,0,0,1,.47-.93c.3-.09.56-.18.86-.29a.74.74,0,0,1,.93.45c.89,2.36,1.58,3.93,2.75,6.7,1.88,4.44-.23,6.54-4.28,7.25S136.07,36.92,135.32,32.7Z"/><path d="M148,21.25a46.86,46.86,0,0,0,6.17-3.19.74.74,0,0,1,1,.24l.35.55a.74.74,0,0,1-.24,1,41.92,41.92,0,0,1-4.07,2.19.74.74,0,0,0-.33,1c.42.77.75,1.37,1.22,2.2a.73.73,0,0,0,.94.32,33.61,33.61,0,0,0,3.76-1.85.74.74,0,0,1,1,.24l.57.85a.74.74,0,0,1-.27,1.06,30.47,30.47,0,0,1-3.7,1.74.75.75,0,0,0-.37,1.05c.58,1,1,1.75,1.51,2.74a.76.76,0,0,0,.91.35A29.76,29.76,0,0,0,162,29.23a.75.75,0,0,1,1,.23l.36.57a.75.75,0,0,1-.24,1,32.32,32.32,0,0,1-8.74,3.61.75.75,0,0,1-.88-.41c-2-4.36-3.93-7.68-5.89-12A.74.74,0,0,1,148,21.25Z"/><path d="M62.9,210.6c.46-.28.8-.49,1.27-.76a.44.44,0,0,1,.59.16c2.11,3.6,3.27,5.57,5.37,9.17a.44.44,0,0,1-.14.6l-1.08.64a.44.44,0,0,1-.6-.14l-5.55-9.07A.43.43,0,0,1,62.9,210.6Z"/><path d="M67.34,208c.54-.3.93-.5,1.51-.81a.44.44,0,0,1,.43,0c2.5,1.44,3.79,2.24,6.23,3.85h0c.88.66,1.32,1,2.18,1.67l.07,0c-.6-1-1.38-2.28-1.92-3.44l-2-4.12a.44.44,0,0,1,.2-.58l1.22-.56a.43.43,0,0,1,.57.22l4.36,9.7a.44.44,0,0,1-.21.58c-.48.21-.82.37-1.33.61a.46.46,0,0,1-.44,0c-2.3-1.62-3.55-2.44-6-4-.91-.63-1.37-.94-2.3-1.55l-.07,0c.67,1,1.48,2.17,2.08,3.3L74.09,217a.44.44,0,0,1-.18.59l-1,.54a.45.45,0,0,1-.59-.17c-2-3.66-3.13-5.65-5.15-9.3A.45.45,0,0,1,67.34,208Z"/><path d="M80.9,203.52c-1,.39-1.63.66-2.61,1.08a.43.43,0,0,1-.57-.22l-.34-.78a.43.43,0,0,1,.23-.57c3.21-1.39,5-2.08,8.31-3.2a.46.46,0,0,1,.56.27l.27.81a.45.45,0,0,1-.27.55c-1,.34-1.66.57-2.65.94a.44.44,0,0,0-.26.56l3.12,8.35a.44.44,0,0,1-.26.56l-1.13.44a.44.44,0,0,1-.56-.25c-1.28-3.25-2-5.05-3.28-8.29A.43.43,0,0,0,80.9,203.52Z"/><path d="M88.27,199.06c2.56-.82,4-1.24,6.61-1.89a.44.44,0,0,1,.53.32l.21.82a.44.44,0,0,1-.32.53c-1.68.42-2.68.7-4.35,1.19a.44.44,0,0,0-.29.54l.6,2a.44.44,0,0,0,.54.29c1.31-.39,2.13-.62,3.44-1a.44.44,0,0,1,.53.31c.08.29.14.53.21.82a.44.44,0,0,1-.31.53c-1.29.33-2.1.56-3.38.94A.44.44,0,0,0,92,205c.28.91.46,1.52.73,2.43a.44.44,0,0,0,.55.29c1.58-.47,2.55-.74,4.15-1.14a.44.44,0,0,1,.53.31l.21.84a.43.43,0,0,1-.32.52c-2.36.59-3.72,1-6,1.72a.45.45,0,0,1-.55-.28L88,199.61A.45.45,0,0,1,88.27,199.06Z"/><path d="M97.62,197a.44.44,0,0,1,.33-.52c1.42-.33,2.26-.5,3.81-.8,2.61-.5,4.77.05,5.15,2.59s-1.38,3.83-3.84,4.3c-.6.11-1,.18-1.46.29a.44.44,0,0,0-.34.51c.29,1.35.46,2.2.75,3.55a.44.44,0,0,1-.34.52c-.42.08-.74.16-1.16.25a.45.45,0,0,1-.52-.33C99.07,203.25,98.56,201,97.62,197Zm4.92,4c1.65-.32,2.44-1.11,2.22-2.4s-1.23-1.61-2.93-1.28l-1.32.26a.44.44,0,0,0-.34.52c.22,1.06.37,1.75.59,2.81a.44.44,0,0,0,.51.34Zm.28.82.74-.84a.43.43,0,0,1,.65,0c1.57,1.77,2.47,2.86,3.88,4.63a.43.43,0,0,1-.27.69l-1.28.21a.46.46,0,0,1-.42-.16c-1.25-1.58-2-2.46-3.3-4A.44.44,0,0,1,102.82,201.79Z"/><path d="M108.82,194.52l1.64-.2a.43.43,0,0,1,.39.17c1.77,2.26,2.65,3.48,4.3,5.86v0c.57.93.85,1.4,1.4,2.35h.07c-.17-1.18-.44-2.62-.53-3.9-.13-1.84-.19-2.83-.31-4.55a.42.42,0,0,1,.4-.46l1.29-.08a.44.44,0,0,1,.45.42c.21,4.16.32,6.45.53,10.61a.44.44,0,0,1-.41.46l-1.4.09a.44.44,0,0,1-.4-.2c-1.52-2.34-2.37-3.57-4.1-5.92-.6-.92-.91-1.38-1.53-2.29h-.08c.25,1.2.58,2.55.72,3.83.21,1.85.32,2.85.52,4.57a.43.43,0,0,1-.38.48l-1.08.13a.43.43,0,0,1-.48-.37c-.55-4.14-.85-6.41-1.39-10.54A.43.43,0,0,1,108.82,194.52Z"/><path d="M123.41,193.56c.77,0,1.27,0,2,0a.44.44,0,0,1,.41.29c1.45,4.25,2.16,6.57,3.29,10.77a.43.43,0,0,1-.43.55l-1.24-.05a.46.46,0,0,1-.41-.34c-.57-2.26-.9-3.49-1.58-5.84-.36-1.22-.71-2.54-1.08-3.8h-.07c-.36,1.27-.72,2.57-1.1,3.79-.71,2.34-1.06,3.57-1.66,5.82a.44.44,0,0,1-.41.33l-1.16,0a.44.44,0,0,1-.43-.56c1.18-4.18,1.92-6.49,3.42-10.72A.47.47,0,0,1,123.41,193.56ZM122,200.37c1.85,0,3,0,4.79,0a.45.45,0,0,1,.43.45l0,.75a.43.43,0,0,1-.45.4c-1.81-.05-2.89-.06-4.7,0a.45.45,0,0,1-.45-.43v-.73A.43.43,0,0,1,122,200.37Z"/><path d="M131.71,195.56c-1-.08-1.72-.12-2.76-.16a.44.44,0,0,1-.42-.45l0-.85a.44.44,0,0,1,.45-.42c3.43.15,5.33.31,8.74.72a.45.45,0,0,1,.38.49l-.11.84a.43.43,0,0,1-.48.38c-1-.13-1.71-.2-2.75-.3a.44.44,0,0,0-.47.39c-.32,3.48-.5,5.41-.82,8.88a.45.45,0,0,1-.47.4l-1.18-.1a.44.44,0,0,1-.4-.47c.26-3.47.4-5.41.65-8.89A.43.43,0,0,0,131.71,195.56Z"/><path d="M140.19,194.72l1.39.21a.43.43,0,0,1,.36.5l-1.66,10.5a.44.44,0,0,1-.49.36l-1.17-.17a.44.44,0,0,1-.37-.49l1.45-10.53A.44.44,0,0,1,140.19,194.72Z"/><path d="M143,201c.64-3.67,3.31-5.46,6.57-4.72s4.92,3.51,3.93,7.09-3.62,5.21-6.55,4.55S142.37,204.62,143,201Zm8.34,1.79c.64-2.5-.22-4.34-2.16-4.78s-3.5.86-4,3.39.36,4.38,2.16,4.79S150.72,205.25,151.36,202.74Z"/><path d="M157.41,198.5l1.6.49a.48.48,0,0,1,.3.32c.7,2.79,1,4.26,1.57,7.12v0c.15,1.09.21,1.64.34,2.73l.07,0c.31-1.15.65-2.58,1.1-3.78.63-1.73,1-2.66,1.57-4.28a.43.43,0,0,1,.55-.26l1.24.47a.43.43,0,0,1,.24.56l-3.84,9.91a.45.45,0,0,1-.56.26l-1.35-.51a.47.47,0,0,1-.29-.34c-.45-2.77-.73-4.24-1.36-7.09-.19-1.09-.28-1.64-.49-2.72l-.07,0c-.26,1.2-.51,2.57-.9,3.79-.56,1.78-.86,2.74-1.39,4.39a.44.44,0,0,1-.54.29l-1-.33a.43.43,0,0,1-.29-.54l3-10.19A.44.44,0,0,1,157.41,198.5Z"/><path d="M171.32,203.65l1.91.88a.43.43,0,0,1,.25.43c-.38,4.48-.66,6.89-1.32,11.21a.43.43,0,0,1-.62.32l-1.16-.57a.46.46,0,0,1-.24-.47c.4-2.31.59-3.57.92-6,.16-1.27.37-2.61.55-3.92l-.07,0c-.85,1-1.72,2-2.58,3-1.61,1.84-2.44,2.82-3.92,4.63a.46.46,0,0,1-.51.13l-1.1-.46a.43.43,0,0,1-.17-.68c2.81-3.34,4.44-5.13,7.57-8.37A.44.44,0,0,1,171.32,203.65Zm-4.12,5.61c1.74.74,2.76,1.21,4.47,2a.43.43,0,0,1,.2.58l-.32.66a.43.43,0,0,1-.58.19c-1.68-.81-2.69-1.27-4.39-2a.43.43,0,0,1-.24-.56l.29-.68A.44.44,0,0,1,167.2,209.26Z"/><path d="M178.55,207.17l1.29.7a.44.44,0,0,1,.17.59l-4.3,7.8a.46.46,0,0,0,.17.6c1.39.76,2.23,1.25,3.59,2.08a.44.44,0,0,1,.15.6l-.45.73a.43.43,0,0,1-.59.14c-2.06-1.25-3.26-1.94-5.37-3a.44.44,0,0,1-.19-.59l4.94-9.41A.44.44,0,0,1,178.55,207.17Z"/></g></g></svg>